<svg id="Capa_1" enable-background="new 0 0 512 512" height="512" viewBox="0 0 512 512" width="512" xmlns="http://www.w3.org/2000/svg"><g><g><path d="m256 7.5c-137.243 0-248.5 111.257-248.5 248.5h248.5z" fill="#d7b8f7"/></g><g><path d="m504.5 256c0-137.243-111.257-248.5-248.5-248.5v248.5z" fill="#bbf8d3"/></g><g><path d="m256 504.5v-248.5h-248.5c0 137.243 111.257 248.5 248.5 248.5z" fill="#aedafe"/></g><g><path d="m256 504.5c137.243 0 248.5-111.257 248.5-248.5h-248.5z" fill="#f9d48d"/></g><g><path d="m256 7.5v1.808c123.094 14.814 218.5 119.605 218.5 246.692h30c0-137.243-111.257-248.5-248.5-248.5z" fill="#88f2a9"/></g><g><path d="m474.5 256c0 127.087-95.406 231.878-218.5 246.692v1.808c137.243 0 248.5-111.257 248.5-248.5z" fill="#ffc059"/></g><g><circle cx="256" cy="256" fill="#dce6eb" r="181.333"/></g><g><path d="m256 74.667c-5.052 0-10.053.217-15 .622 93.129 7.627 166.333 85.615 166.333 180.711s-73.204 173.084-166.333 180.711c4.947.405 9.948.622 15 .622 100.148 0 181.333-81.186 181.333-181.333s-81.185-181.333-181.333-181.333z" fill="#c8d2dc"/></g><g><circle cx="256" cy="256" fill="#fafafa" r="128"/></g><g><path d="m256 128c-5.076 0-10.079.305-15 .88 63.623 7.428 113 61.503 113 127.12s-49.377 119.693-113 127.121c4.921.575 9.924.879 15 .879 70.692 0 128-57.308 128-128s-57.307-128-128-128z" fill="#ebf2f5"/></g><g><path d="m485.12 141.684c-17.005-34.018-41.902-64.382-72.001-87.811-3.269-2.544-7.98-1.958-10.524 1.311-2.545 3.268-1.958 7.981 1.312 10.525 28.343 22.063 51.786 50.654 67.797 82.681 15.673 31.354 24.126 64.997 25.179 100.109h-52.21c-3.856-98.168-83.004-177.315-181.173-181.17v-52.208c41.495 1.283 81.895 13.196 117.283 34.656 3.539 2.147 8.153 1.018 10.302-2.524 2.147-3.542 1.018-8.154-2.524-10.302-39.863-24.173-85.702-36.951-132.561-36.951-68.38 0-132.667 26.629-181.02 74.98-48.351 48.352-74.98 112.64-74.98 181.02 0 35.771 7.237 70.382 21.51 102.872 13.786 31.38 33.443 59.296 58.426 82.971 1.45 1.375 3.306 2.056 5.158 2.056 1.986 0 3.97-.785 5.444-2.341 2.85-3.006 2.722-7.753-.284-10.603-23.524-22.294-42.033-48.576-55.011-78.117-12.433-28.3-19.18-58.32-20.118-89.338h52.204c3.855 98.169 83.002 177.316 181.171 181.171v52.204c-48.982-1.484-95.538-17.494-135.071-46.55-3.338-2.453-8.031-1.736-10.484 1.602s-1.736 8.032 1.602 10.485c44.139 32.441 96.511 49.588 151.453 49.588 68.38 0 132.668-26.629 181.02-74.981 48.351-48.351 74.98-112.639 74.98-181.019 0-40.173-9.044-78.634-26.88-114.316zm-399.532-56.097c43.746-43.746 101.351-68.59 162.912-70.46v52.202c-98.169 3.855-177.316 83.002-181.171 181.171h-52.202c1.87-61.562 26.714-119.166 70.461-162.913zm-3.421 170.413c0-95.852 77.981-173.833 173.833-173.833 95.853 0 173.834 77.981 173.834 173.833s-77.981 173.833-173.834 173.833c-95.852 0-173.833-77.981-173.833-173.833zm344.246 170.413c-43.746 43.746-101.351 68.59-162.913 70.46v-52.202c98.169-3.855 177.317-83.002 181.172-181.171h52.201c-1.87 61.562-26.714 119.167-70.46 162.913z"/><path d="m391.5 256c0-74.715-60.785-135.5-135.5-135.5s-135.5 60.785-135.5 135.5 60.785 135.5 135.5 135.5 135.5-60.785 135.5-135.5zm-256 0c0-66.444 54.056-120.5 120.5-120.5s120.5 54.056 120.5 120.5-54.056 120.5-120.5 120.5-120.5-54.056-120.5-120.5z"/><path d="m222.77 246.464h66.462c4.142 0 7.5-3.358 7.5-7.5s-3.358-7.5-7.5-7.5h-66.462c-4.143 0-7.5 3.358-7.5 7.5s3.357 7.5 7.5 7.5z"/><path d="m311.5 273.036c0-4.142-3.357-7.5-7.5-7.5h-96c-4.143 0-7.5 3.358-7.5 7.5s3.357 7.5 7.5 7.5h96c4.143 0 7.5-3.358 7.5-7.5z"/></g></g></svg>